<svg version="1" xmlns="http://www.w3.org/2000/svg" width="340" height="340" viewBox="0 0 255.000000 255.000000"><path d="M46.7 44.1c-8.8 2.1-17.6 8.9-21.6 16.7-1.8 3.6-4.7 14.6-14.5 55.2-1.9 8-5.1 21.1-7 29.2-4.2 17.1-4.2 17.9-1.7 20.2 1.5 1.4 3.9 1.8 11.4 1.9l9.5.1 1.2 5.5c4 17.9 20 33.4 38.2 37.1 26.6 5.4 52.4-10.7 59.1-37 1.3-5.1 1.6-5.4 4.8-5.8 3.4-.3 3.4-.3 4.8 5.5 4 17.4 18.6 32.1 36.6 36.9 10.9 2.9 25.6 1.1 35.9-4.4 11.4-6 23.1-21.3 25.2-32.8.9-5 1-5.1 10.8-5.1 5.2 0 9.9-.4 10.6-.8 2.8-1.7 2.6-6.9-.5-18.8-1-3.6-1.5-5.5-4.9-19.7-1.9-8-5.3-22.1-7.6-31.3-2.3-9.3-4.3-17.6-4.5-18.5-1.6-7.8-3.5-14.3-4.8-16.9-5.6-10.7-17-17.7-29.8-18.2-4.8-.2-6 .1-7.8 2-4.4 4.7-1.3 9.8 6.4 10.5 7.5.8 14.9 4.5 17.9 9.1 1.8 2.6 4.1 10.2 7.6 24.8 11.6 47.9 15.1 62.1 15.5 63.5.4 1.3-.4 1.6-3.7 1.5l-4.2-.1-1.1-5.1c-3.2-14-13.5-26.8-27-33.6-8.2-4.1-21.3-5.9-31-4.2-17.7 3.1-33.3 17.3-38.8 35.3-2.4 7.9-2.4 7.9-7.7 7.4-1-.1-2-2.1-2.8-5.5-2-8.6-6.1-15.8-13.1-22.8-10.2-10.3-20.3-14.5-35.1-14.8-23-.5-43.6 15.3-49.1 37.5-1.4 5.6-2.2 6.4-5.8 5.9-1.4-.2-3-.4-3.4-.4-.5-.1-.5-.5-.2-1.1.3-.5.8-1.8 1-2.7.2-1 2.2-9.3 4.5-18.5 2.2-9.1 4.3-17.4 4.5-18.5.2-1 2.2-9.5 4.5-18.8 2.3-9.4 4.4-18.1 4.6-19.5.2-1.4 1.7-5 3.2-8 2.3-4.6 3.6-5.9 8.2-8.2 3.1-1.5 7.5-2.8 10-2.9 7.6-.4 11.1-5.4 7.4-10.7-1.2-1.8-2.4-2.2-6.7-2.1-2.9.1-6.9.5-9 1zm34.5 80.4c10 2.1 20.8 11.1 25.7 21.5 2.2 4.7 2.6 6.9 2.6 15 0 8.4-.3 10.2-2.8 15.1-4 8.3-9.8 14.3-17.2 18-19.4 9.5-41.5 1.7-50.9-18-2.7-5.8-3.1-7.6-3-15.2 0-8 .3-9.3 3.7-16.2 7.9-16 24.3-23.9 41.9-20.2zm106.8 0c10.2 2.1 21 11.1 25.8 21.3 2.3 4.9 2.7 7 2.7 15.2s-.4 10.3-2.7 15.3c-3.1 6.6-10.7 14.6-16.8 17.7-19.2 9.8-41.9 2-51.2-17.6-13-27.5 12.1-58.3 42.2-51.9z"/></svg>